<?xml version="1.0" encoding="utf-8"?>
<!-- Generator: Adobe Illustrator 18.0.0, SVG Export Plug-In . SVG Version: 6.00 Build 0)  -->
<!DOCTYPE svg PUBLIC "-//W3C//DTD SVG 1.1//EN" "http://www.w3.org/Graphics/SVG/1.1/DTD/svg11.dtd">
<svg version="1.1" id="Layer_1" xmlns="http://www.w3.org/2000/svg" xmlns:xlink="http://www.w3.org/1999/xlink" x="0px" y="0px"
	 width="60px" height="62.7px" viewBox="0 0 60 62.7" enable-background="new 0 0 60 62.7" xml:space="preserve">
<path fill="#CCB066" d="M28.7,62.7c-0.6,0-1-0.4-1-1V1c0-0.6,0.4-1,1-1c0.6,0,1,0.4,1,1v60.7C29.7,62.2,29.2,62.7,28.7,62.7"/>
<path fill="#CCB066" d="M1,45.5c-0.2,0-0.4,0-0.5-0.2C0,45-0.1,44.4,0.2,43.9L27.5,0.5c0.3-0.5,0.9-0.6,1.4-0.3
	c0.5,0.3,0.6,0.9,0.3,1.4L1.8,45C1.7,45.3,1.3,45.5,1,45.5"/>
<path fill="#CCB066" d="M55.8,44.5c-0.3,0-0.7-0.2-0.8-0.5L28.2,1.5c-0.3-0.5-0.2-1.1,0.3-1.4c0.5-0.3,1.1-0.2,1.4,0.3L56.6,43
	c0.3,0.5,0.2,1.1-0.3,1.4C56.1,44.5,55.9,44.5,55.8,44.5"/>
<path fill="#CCB066" d="M57.8,31.5H10.5c-0.6,0-1-0.4-1-1c0-0.6,0.4-1,1-1h47.3c0.6,0,1,0.4,1,1C58.8,31,58.4,31.5,57.8,31.5"/>
<path fill="#CCB066" d="M28.7,62.7c-6.1,0-11.9-1.7-17-5c-0.5-0.3-0.6-0.9-0.3-1.4c0.3-0.5,0.9-0.6,1.4-0.3
	c4.7,3.1,10.2,4.7,15.9,4.7C44.8,60.7,58,47.5,58,31.3C58,15.2,44.8,2,28.7,2c-0.6,0-1-0.4-1-1c0-0.6,0.4-1,1-1
	C45.9,0,60,14.1,60,31.3S45.9,62.7,28.7,62.7"/>
</svg>
