<svg viewBox="0 0 32.58 31.77" xmlns="http://www.w3.org/2000/svg"><path d="m16.29 0a16.29 16.29 0 0 0 -5.15 31.75c.82.15 1.11-.36 1.11-.79s0-1.41 0-2.77c-4.55.99-5.51-2.19-5.51-2.19a4.36 4.36 0 0 0 -1.81-2.39c-1.47-1 .12-1 .12-1a3.43 3.43 0 0 1 2.49 1.68 3.48 3.48 0 0 0 4.74 1.36 3.46 3.46 0 0 1 1-2.18c-3.62-.41-7.42-1.81-7.42-8a6.3 6.3 0 0 1 1.67-4.37 5.94 5.94 0 0 1 .16-4.31s1.37-.44 4.48 1.67a15.41 15.41 0 0 1 8.16 0c3.11-2.11 4.47-1.67 4.47-1.67a5.91 5.91 0 0 1 .2 4.28 6.3 6.3 0 0 1 1.67 4.37c0 6.26-3.81 7.63-7.44 8a3.85 3.85 0 0 1 1.11 3v4.47s.29.94 1.12.78a16.29 16.29 0 0 0 -5.17-31.69z" fill="#fff" fill-rule="evenodd"/></svg>