<?xml version="1.0" encoding="UTF-8"?>
<svg width="164px" height="25px" viewBox="0 0 164 25" version="1.1" xmlns="http://www.w3.org/2000/svg" xmlns:xlink="http://www.w3.org/1999/xlink">
    <!-- Generator: Sketch 44.1 (41455) - http://www.bohemiancoding.com/sketch -->
    <title>logo</title>
    <desc>Created with Sketch.</desc>
    <defs></defs>
    <g id="Page-1" stroke="none" stroke-width="1" fill="none" fill-rule="evenodd">
        <g id="logo" fill-rule="nonzero" fill="#ffffff">
            <g id="Group">
                <polygon id="Shape" points="16.2197802 16.0395604 16.2197802 16.0395604 8.10989011 8.01978022 16.2197802 0 8.10989011 0 0 8.01978022 4.05494505 12.0747253 8.10989011 16.0395604 12.1648352 20.0043956"></polygon>
                <polygon id="Shape" points="21.9868132 12.0747253 17.9318681 8.01978022 13.8769231 4.05494505 9.91208791 8.01978022 17.9318681 16.0395604 17.9318681 16.0395604 17.9318681 16.0395604 9.82197802 24.0593407 17.9318681 24.0593407 21.9868132 20.0945055 26.0417582 16.0395604"></polygon>
            </g>
            <g id="Group" transform="translate(30.637363, 5.406593)">
                <path d="M5.4967033,2.61318681 C4.32527473,2.61318681 3.33406593,2.97362637 2.61318681,3.78461538 C1.89230769,4.5956044 1.53186813,5.67692308 1.53186813,7.11868132 C1.53186813,8.56043956 1.89230769,9.64175824 2.52307692,10.4527473 C3.24395604,11.2637363 4.14505495,11.6241758 5.40659341,11.6241758 C6.21758242,11.6241758 7.02857143,11.443956 8.01978022,11.1736264 L8.01978022,12.3450549 C7.20879121,12.6153846 6.30769231,12.7956044 5.22637363,12.7956044 C3.6043956,12.7956044 2.34285714,12.3450549 1.44175824,11.3538462 C0.540659341,10.3626374 0.0901098901,8.92087912 0.0901098901,7.11868132 C0.0901098901,5.94725275 0.27032967,4.95604396 0.720879121,4.14505495 C1.17142857,3.33406593 1.8021978,2.61318681 2.52307692,2.16263736 C3.24395604,1.71208791 4.23516484,1.44175824 5.40659341,1.44175824 C6.57802198,1.44175824 7.56923077,1.62197802 8.47032967,2.07252747 L7.92967033,3.15384615 C7.20879121,2.88351648 6.3978022,2.61318681 5.4967033,2.61318681 Z" id="Shape"></path>
                <path d="M16.7604396,9.73186813 C16.7604396,10.7230769 16.4,11.443956 15.6791209,11.9846154 C14.9582418,12.5252747 14.0571429,12.7956044 12.7956044,12.7956044 C11.443956,12.7956044 10.4527473,12.6153846 9.73186813,12.2549451 L9.73186813,10.9934066 C10.1824176,11.1736264 10.7230769,11.3538462 11.1736264,11.443956 C11.6241758,11.5340659 12.2549451,11.6241758 12.7956044,11.6241758 C13.6967033,11.6241758 14.3274725,11.443956 14.6879121,11.1736264 C15.1384615,10.8131868 15.3186813,10.3626374 15.3186813,9.82197802 C15.3186813,9.46153846 15.2285714,9.1010989 15.0483516,8.92087912 C14.8681319,8.65054945 14.5978022,8.47032967 14.2373626,8.2 C13.8769231,8.01978022 13.3362637,7.74945055 12.6153846,7.47912088 C11.6241758,7.11868132 10.8131868,6.66813187 10.4527473,6.12747253 C10.0021978,5.58681319 9.82197802,4.95604396 9.82197802,4.14505495 C9.82197802,3.33406593 10.1824176,2.61318681 10.8131868,2.07252747 C11.443956,1.53186813 12.3450549,1.35164835 13.3362637,1.35164835 C14.4175824,1.35164835 15.4087912,1.53186813 16.4,1.98241758 L16.0395604,3.06373626 C15.1384615,2.7032967 14.2373626,2.52307692 13.3362637,2.52307692 C12.6153846,2.52307692 12.1648352,2.7032967 11.7142857,2.97362637 C11.3538462,3.24395604 11.1736264,3.69450549 11.1736264,4.23516484 C11.1736264,4.5956044 11.2637363,4.95604396 11.3538462,5.13626374 C11.5340659,5.40659341 11.7142857,5.58681319 12.0747253,5.76703297 C12.4351648,5.94725275 12.8857143,6.21758242 13.6065934,6.48791209 C14.778022,6.93846154 15.589011,7.38901099 16.0395604,7.83956044 C16.5802198,8.38021978 16.7604396,9.01098901 16.7604396,9.73186813 Z" id="Shape"></path>
                <path d="M25.3208791,9.73186813 C25.3208791,10.7230769 24.9604396,11.443956 24.2395604,11.9846154 C23.5186813,12.5252747 22.6175824,12.7956044 21.356044,12.7956044 C20.0043956,12.7956044 19.0131868,12.6153846 18.2923077,12.2549451 L18.2923077,10.9934066 C18.7428571,11.1736264 19.2835165,11.3538462 19.7340659,11.443956 C20.1846154,11.5340659 20.8153846,11.6241758 21.356044,11.6241758 C22.2571429,11.6241758 22.8879121,11.443956 23.2483516,11.1736264 C23.6989011,10.8131868 23.8791209,10.3626374 23.8791209,9.82197802 C23.8791209,9.46153846 23.789011,9.1010989 23.6087912,8.92087912 C23.4285714,8.65054945 23.1582418,8.47032967 22.7978022,8.2 C22.4373626,8.01978022 21.8967033,7.74945055 21.1758242,7.47912088 C20.1846154,7.11868132 19.3736264,6.66813187 19.0131868,6.12747253 C18.5626374,5.58681319 18.3824176,4.95604396 18.3824176,4.14505495 C18.3824176,3.33406593 18.7428571,2.61318681 19.3736264,2.07252747 C20.0043956,1.53186813 20.9054945,1.35164835 21.8967033,1.35164835 C22.978022,1.35164835 23.9692308,1.53186813 24.9604396,1.98241758 L24.6,3.06373626 C23.6989011,2.7032967 22.7978022,2.52307692 21.8967033,2.52307692 C21.1758242,2.52307692 20.7252747,2.7032967 20.2747253,2.97362637 C19.9142857,3.24395604 19.7340659,3.69450549 19.7340659,4.23516484 C19.7340659,4.5956044 19.8241758,4.95604396 19.9142857,5.13626374 C20.0945055,5.40659341 20.2747253,5.58681319 20.6351648,5.76703297 C20.9956044,5.94725275 21.4461538,6.21758242 22.167033,6.48791209 C23.3384615,6.93846154 24.1494505,7.38901099 24.6,7.83956044 C25.0505495,8.38021978 25.3208791,9.01098901 25.3208791,9.73186813 Z" id="Shape"></path>
                <path d="M36.5846154,6.93846154 C36.5846154,8.74065934 36.043956,10.1824176 35.0527473,11.1736264 C34.0615385,12.1648352 32.6197802,12.7054945 30.7274725,12.7054945 L27.1230769,12.7054945 L27.1230769,1.62197802 L30.9076923,1.62197802 C32.7098901,1.62197802 34.0615385,2.07252747 35.0527473,2.97362637 C36.043956,3.87472527 36.5846154,5.22637363 36.5846154,6.93846154 Z M33.5208791,7.02857143 C33.5208791,6.03736264 33.3406593,5.22637363 32.8901099,4.77582418 C32.5296703,4.32527473 31.8989011,4.05494505 31.0879121,4.05494505 L30.1868132,4.05494505 L30.1868132,10.2725275 L30.8175824,10.2725275 C31.7186813,10.2725275 32.3494505,10.0021978 32.8,9.46153846 C33.3406593,8.92087912 33.5208791,8.10989011 33.5208791,7.02857143 Z" id="Shape"></path>
                <path d="M42.5318681,12.8857143 C41.0901099,12.8857143 40.0087912,12.5252747 39.1978022,11.7142857 C38.3868132,10.9934066 38.0263736,9.91208791 38.0263736,8.47032967 C38.0263736,7.02857143 38.3868132,5.94725275 39.1076923,5.13626374 C39.8285714,4.32527473 40.9098901,3.96483516 42.2615385,3.96483516 C43.5230769,3.96483516 44.5142857,4.32527473 45.2351648,4.95604396 C45.956044,5.58681319 46.3164835,6.57802198 46.3164835,7.83956044 L46.3164835,9.19120879 L41,9.19120879 C41,9.64175824 41.1802198,10.0021978 41.5406593,10.3626374 C41.9010989,10.632967 42.3516484,10.8131868 42.8923077,10.8131868 C43.432967,10.8131868 43.8835165,10.7230769 44.3340659,10.632967 C44.7846154,10.5428571 45.2351648,10.3626374 45.7758242,10.0923077 L45.7758242,12.2549451 C45.3252747,12.5252747 44.8747253,12.6153846 44.3340659,12.7054945 C43.7934066,12.7956044 43.2527473,12.8857143 42.5318681,12.8857143 Z M42.3516484,6.03736264 C41.9912088,6.03736264 41.7208791,6.12747253 41.4505495,6.3978022 C41.1802198,6.57802198 41.0901099,6.93846154 41,7.38901099 L43.5230769,7.38901099 C43.5230769,6.93846154 43.432967,6.66813187 43.1626374,6.3978022 C43.0725275,6.12747253 42.8021978,6.03736264 42.3516484,6.03736264 Z" id="Shape"></path>
                <path d="M54.6065934,10.0923077 C54.6065934,10.9934066 54.3362637,11.7142857 53.7054945,12.1648352 C53.0747253,12.6153846 52.1736264,12.8857143 51.0021978,12.8857143 C50.3714286,12.8857143 49.8307692,12.8857143 49.3802198,12.7956044 C48.9296703,12.7054945 48.389011,12.6153846 47.9384615,12.4351648 L47.9384615,10.0923077 C48.389011,10.2725275 48.9296703,10.4527473 49.4703297,10.632967 C50.010989,10.7230769 50.4615385,10.8131868 50.9120879,10.8131868 C51.5428571,10.8131868 51.9032967,10.632967 51.9032967,10.3626374 C51.9032967,10.1824176 51.8131868,10.0923077 51.632967,10.0021978 C51.4527473,9.91208791 50.9120879,9.64175824 50.1010989,9.28131868 C49.2901099,8.92087912 48.7494505,8.56043956 48.4791209,8.2 C48.2087912,7.74945055 48.0285714,7.2989011 48.0285714,6.66813187 C48.0285714,5.85714286 48.2989011,5.22637363 48.9296703,4.77582418 C49.5604396,4.32527473 50.3714286,4.14505495 51.5428571,4.14505495 C52.0835165,4.14505495 52.6241758,4.23516484 53.1648352,4.32527473 C53.7054945,4.41538462 54.156044,4.5956044 54.6967033,4.86593407 L53.8857143,6.75824176 C53.5252747,6.57802198 53.0747253,6.3978022 52.6241758,6.30769231 C52.1736264,6.21758242 51.8131868,6.12747253 51.5428571,6.12747253 C51.0923077,6.12747253 50.821978,6.21758242 50.821978,6.48791209 C50.821978,6.66813187 50.9120879,6.75824176 51.0923077,6.84835165 C51.2725275,6.93846154 51.7230769,7.11868132 52.5340659,7.47912088 C53.1648352,7.74945055 53.6153846,7.92967033 53.8857143,8.2 C54.156044,8.47032967 54.4263736,8.74065934 54.5164835,9.01098901 C54.5164835,9.19120879 54.6065934,9.64175824 54.6065934,10.0923077 Z" id="Shape"></path>
                <path d="M56.2285714,1.98241758 C56.2285714,1.53186813 56.3186813,1.17142857 56.589011,0.991208791 C56.8593407,0.810989011 57.2197802,0.630769231 57.7604396,0.630769231 C58.3010989,0.630769231 58.7516484,0.720879121 58.9318681,0.991208791 C59.2021978,1.17142857 59.2923077,1.53186813 59.2923077,1.98241758 C59.2923077,2.88351648 58.7516484,3.24395604 57.6703297,3.24395604 C56.6791209,3.33406593 56.2285714,2.88351648 56.2285714,1.98241758 Z M59.2021978,12.7054945 L56.2285714,12.7054945 L56.2285714,4.14505495 L59.2021978,4.14505495 L59.2021978,12.7054945 Z" id="Shape"></path>
                <path d="M69.3846154,4.14505495 L69.3846154,5.58681319 L68.2131868,6.03736264 C68.3934066,6.30769231 68.4835165,6.66813187 68.4835165,7.02857143 C68.4835165,7.92967033 68.1230769,8.65054945 67.4923077,9.19120879 C66.8615385,9.73186813 65.8703297,9.91208791 64.6087912,9.91208791 C64.2483516,9.91208791 64.0681319,9.91208791 63.8879121,9.82197802 C63.7978022,9.91208791 63.7978022,10.0923077 63.7978022,10.1824176 C63.7978022,10.3626374 63.8879121,10.4527473 64.1582418,10.5428571 C64.4285714,10.632967 64.6989011,10.632967 65.0593407,10.632967 L66.5010989,10.632967 C68.3934066,10.632967 69.3846154,11.443956 69.3846154,13.0659341 C69.3846154,14.1472527 68.9340659,14.9582418 68.032967,15.4989011 C67.1318681,16.0395604 65.8703297,16.4 64.2483516,16.4 C63.0769231,16.4 62.0857143,16.2197802 61.4549451,15.7692308 C60.8241758,15.4087912 60.4637363,14.778022 60.4637363,14.0571429 C60.4637363,13.0659341 61.0945055,12.3450549 62.356044,12.0747253 C62.0857143,11.9846154 61.9054945,11.8043956 61.6351648,11.5340659 C61.4549451,11.2637363 61.3648352,11.0835165 61.3648352,10.8131868 C61.3648352,10.5428571 61.4549451,10.2725275 61.5450549,10.0923077 C61.7252747,9.91208791 61.9956044,9.64175824 62.4461538,9.37142857 C61.9956044,9.19120879 61.6351648,8.83076923 61.3648352,8.47032967 C61.0945055,8.01978022 61.0043956,7.56923077 61.0043956,6.93846154 C61.0043956,6.03736264 61.3648352,5.31648352 61.9956044,4.77582418 C62.6263736,4.23516484 63.5274725,3.96483516 64.6989011,3.96483516 C64.8791209,3.96483516 65.1494505,3.96483516 65.5098901,4.05494505 C65.8703297,4.05494505 66.1406593,4.14505495 66.3208791,4.14505495 L69.3846154,4.14505495 L69.3846154,4.14505495 Z M62.8967033,13.7868132 C62.8967033,14.0571429 62.9868132,14.2373626 63.2571429,14.4175824 C63.5274725,14.5978022 63.8879121,14.5978022 64.3384615,14.5978022 C65.0593407,14.5978022 65.6,14.5076923 66.0505495,14.3274725 C66.5010989,14.1472527 66.6813187,13.8769231 66.6813187,13.6065934 C66.6813187,13.3362637 66.5912088,13.2461538 66.3208791,13.156044 C66.0505495,13.0659341 65.6901099,12.9758242 65.1494505,12.9758242 L63.978022,12.9758242 C63.6175824,12.9758242 63.4373626,13.0659341 63.167033,13.156044 C62.9868132,13.3362637 62.8967033,13.5164835 62.8967033,13.7868132 Z M63.7978022,6.93846154 C63.7978022,7.83956044 64.0681319,8.29010989 64.6989011,8.29010989 C64.9692308,8.29010989 65.2395604,8.2 65.3296703,7.92967033 C65.5098901,7.74945055 65.6,7.38901099 65.6,6.93846154 C65.6,6.03736264 65.3296703,5.58681319 64.6989011,5.58681319 C64.1582418,5.58681319 63.7978022,6.03736264 63.7978022,6.93846154 Z" id="Shape"></path>
                <path d="M76.0527473,12.7054945 L76.0527473,8.01978022 C76.0527473,7.47912088 75.9626374,7.02857143 75.7824176,6.75824176 C75.6021978,6.48791209 75.3318681,6.30769231 74.9714286,6.30769231 C74.4307692,6.30769231 74.0703297,6.48791209 73.8901099,6.93846154 C73.7098901,7.2989011 73.5296703,8.01978022 73.5296703,9.01098901 L73.5296703,12.7956044 L70.556044,12.7956044 L70.556044,4.23516484 L72.8087912,4.23516484 L73.1692308,5.31648352 L73.3494505,5.31648352 C73.6197802,4.95604396 73.9802198,4.5956044 74.4307692,4.41538462 C74.8813187,4.23516484 75.421978,4.14505495 75.9626374,4.14505495 C76.9538462,4.14505495 77.6747253,4.41538462 78.2153846,4.95604396 C78.756044,5.4967033 79.0263736,6.30769231 79.0263736,7.2989011 L79.0263736,12.8857143 L76.0527473,12.8857143 L76.0527473,12.7054945 Z" id="Shape"></path>
                <path d="M88.4879121,12.7054945 L87.1362637,9.19120879 L82.7208791,9.19120879 L81.3692308,12.7054945 L80.1076923,12.7054945 L84.5230769,1.62197802 L85.6043956,1.62197802 L89.9296703,12.7054945 L88.4879121,12.7054945 Z M86.6857143,8.01978022 L85.4241758,4.5956044 C85.243956,4.14505495 85.0637363,3.6043956 84.8835165,2.97362637 C84.7934066,3.42417582 84.6131868,3.96483516 84.432967,4.5956044 L83.1714286,8.01978022 L86.6857143,8.01978022 L86.6857143,8.01978022 Z" id="Shape"></path>
                <path d="M97.9494505,12.7054945 L96.4175824,7.83956044 C96.3274725,7.56923077 96.1472527,6.84835165 95.8769231,5.85714286 L95.7868132,5.85714286 C95.6065934,6.75824176 95.4263736,7.38901099 95.2461538,7.92967033 L93.7142857,12.7956044 L92.2725275,12.7956044 L90.0197802,4.50549451 L91.3714286,4.50549451 C91.9120879,6.57802198 92.2725275,8.2 92.632967,9.28131868 C92.9032967,10.3626374 93.0835165,11.0835165 93.0835165,11.443956 L93.1736264,11.443956 C93.2637363,11.1736264 93.3538462,10.8131868 93.443956,10.3626374 C93.5340659,9.91208791 93.7142857,9.55164835 93.8043956,9.28131868 L95.3362637,4.50549451 L96.6879121,4.50549451 L98.1296703,9.28131868 C98.4,10.1824176 98.5802198,10.9032967 98.6703297,11.443956 L98.7604396,11.443956 C98.7604396,11.2637363 98.8505495,10.9934066 98.9406593,10.632967 C99.0307692,10.2725275 99.5714286,8.2 100.472527,4.50549451 L101.734066,4.50549451 L99.4813187,12.7956044 L97.9494505,12.7956044 L97.9494505,12.7054945 Z" id="Shape"></path>
                <path d="M108.312088,12.7054945 L108.041758,11.5340659 L107.951648,11.5340659 C107.501099,12.0747253 107.140659,12.4351648 106.69011,12.6153846 C106.23956,12.7956044 105.789011,12.8857143 105.158242,12.8857143 C104.347253,12.8857143 103.716484,12.7054945 103.265934,12.2549451 C102.815385,11.8043956 102.545055,11.2637363 102.545055,10.4527473 C102.545055,8.74065934 103.896703,7.92967033 106.6,7.83956044 L108.041758,7.74945055 L108.041758,7.20879121 C108.041758,6.57802198 107.861538,6.03736264 107.591209,5.76703297 C107.320879,5.4967033 106.87033,5.31648352 106.23956,5.31648352 C105.518681,5.31648352 104.797802,5.4967033 103.896703,5.94725275 L103.536264,4.95604396 C103.986813,4.77582418 104.347253,4.5956044 104.887912,4.41538462 C105.338462,4.32527473 105.879121,4.23516484 106.32967,4.23516484 C107.320879,4.23516484 108.041758,4.41538462 108.492308,4.86593407 C108.942857,5.31648352 109.213187,6.03736264 109.213187,6.93846154 L109.213187,12.6153846 L108.312088,12.6153846 L108.312088,12.7054945 Z M105.428571,11.8043956 C106.23956,11.8043956 106.78022,11.6241758 107.230769,11.1736264 C107.681319,10.7230769 107.861538,10.1824176 107.861538,9.37142857 L107.861538,8.65054945 L106.6,8.74065934 C105.608791,8.74065934 104.887912,8.92087912 104.437363,9.19120879 C103.986813,9.46153846 103.806593,9.91208791 103.806593,10.4527473 C103.806593,10.9032967 103.986813,11.2637363 104.257143,11.443956 C104.617582,11.7142857 104.978022,11.8043956 105.428571,11.8043956 Z" id="Shape"></path>
                <path d="M115.610989,4.23516484 C115.971429,4.23516484 116.331868,4.23516484 116.602198,4.32527473 L116.421978,5.4967033 C116.061538,5.40659341 115.791209,5.40659341 115.520879,5.40659341 C114.89011,5.40659341 114.259341,5.67692308 113.808791,6.21758242 C113.358242,6.75824176 113.087912,7.47912088 113.087912,8.29010989 L113.087912,12.7054945 L111.826374,12.7054945 L111.826374,4.41538462 L112.817582,4.41538462 L112.997802,5.94725275 L113.087912,5.94725275 C113.358242,5.40659341 113.808791,4.95604396 114.169231,4.68571429 C114.61978,4.41538462 115.07033,4.23516484 115.610989,4.23516484 Z" id="Shape"></path>
                <path d="M123.810989,11.6241758 L123.810989,11.6241758 C123.18022,12.4351648 122.279121,12.8857143 121.107692,12.8857143 C120.026374,12.8857143 119.215385,12.5252747 118.584615,11.8043956 C117.953846,11.0835165 117.683516,10.0021978 117.683516,8.65054945 C117.683516,7.2989011 117.953846,6.21758242 118.584615,5.4967033 C119.215385,4.77582418 120.026374,4.32527473 121.107692,4.32527473 C122.189011,4.32527473 123.09011,4.77582418 123.720879,5.58681319 L123.810989,5.58681319 L123.720879,4.95604396 L123.720879,4.41538462 L123.720879,0.901098901 L124.982418,0.901098901 L124.982418,12.7054945 L123.991209,12.7054945 L123.810989,11.6241758 Z M121.287912,11.8043956 C122.189011,11.8043956 122.72967,11.5340659 123.18022,11.0835165 C123.540659,10.632967 123.720879,9.82197802 123.720879,8.83076923 L123.720879,8.56043956 C123.720879,7.38901099 123.540659,6.57802198 123.09011,6.03736264 C122.72967,5.4967033 122.098901,5.31648352 121.197802,5.31648352 C120.476923,5.31648352 119.936264,5.58681319 119.485714,6.21758242 C119.125275,6.75824176 118.854945,7.56923077 118.854945,8.65054945 C118.854945,9.73186813 119.035165,10.5428571 119.395604,11.0835165 C119.936264,11.5340659 120.476923,11.8043956 121.287912,11.8043956 Z" id="Shape"></path>
                <path d="M133.002198,10.4527473 C133.002198,11.2637363 132.731868,11.8043956 132.101099,12.2549451 C131.56044,12.7054945 130.749451,12.8857143 129.668132,12.8857143 C128.586813,12.8857143 127.685714,12.7054945 127.054945,12.3450549 L127.054945,11.1736264 C127.415385,11.3538462 127.865934,11.5340659 128.316484,11.6241758 C128.767033,11.7142857 129.217582,11.8043956 129.668132,11.8043956 C130.298901,11.8043956 130.83956,11.7142857 131.2,11.5340659 C131.56044,11.3538462 131.740659,10.9934066 131.740659,10.5428571 C131.740659,10.1824176 131.56044,9.91208791 131.29011,9.73186813 C131.01978,9.46153846 130.479121,9.19120879 129.668132,8.92087912 C128.857143,8.65054945 128.316484,8.38021978 128.046154,8.2 C127.685714,8.01978022 127.505495,7.74945055 127.325275,7.47912088 C127.145055,7.20879121 127.054945,6.84835165 127.054945,6.48791209 C127.054945,5.85714286 127.325275,5.31648352 127.865934,4.86593407 C128.406593,4.41538462 129.127473,4.23516484 130.118681,4.23516484 C131.01978,4.23516484 131.920879,4.41538462 132.731868,4.77582418 L132.281319,5.76703297 C131.47033,5.40659341 130.659341,5.22637363 130.028571,5.22637363 C129.397802,5.22637363 128.947253,5.31648352 128.676923,5.4967033 C128.406593,5.67692308 128.226374,5.94725275 128.226374,6.30769231 C128.226374,6.48791209 128.316484,6.75824176 128.406593,6.84835165 C128.496703,7.02857143 128.676923,7.11868132 128.947253,7.2989011 C129.217582,7.47912088 129.668132,7.65934066 130.389011,7.92967033 C131.38022,8.29010989 132.010989,8.65054945 132.371429,9.01098901 C132.821978,9.46153846 133.002198,9.91208791 133.002198,10.4527473 Z" id="Shape"></path>
            </g>
        </g>
    </g>
</svg>